<?xml version="1.0" encoding="UTF-8" standalone="no"?>
<!-- Created with Inkscape (http://www.inkscape.org/) -->

<svg
   xmlns:dc="http://purl.org/dc/elements/1.1/"
   xmlns:cc="http://creativecommons.org/ns#"
   xmlns:rdf="http://www.w3.org/1999/02/22-rdf-syntax-ns#"
   xmlns:svg="http://www.w3.org/2000/svg"
   xmlns="http://www.w3.org/2000/svg"
   xmlns:sodipodi="http://sodipodi.sourceforge.net/DTD/sodipodi-0.dtd"
   xmlns:inkscape="http://www.inkscape.org/namespaces/inkscape"
   width="70.430031"
   height="17.88125"
   id="svg5272"
   version="1.1"
   inkscape:version="0.48.4 r9939"
   sodipodi:docname="Viadeo Logo.svg">
  <defs
     id="defs5274">
    <clipPath
       id="clipPath3427"
       clipPathUnits="userSpaceOnUse">
      <path
         inkscape:connector-curvature="0"
         id="path3429"
         d="m 354.29,31.514 55.205,0 0,12.705 -55.205,0 0,-12.705 z" />
    </clipPath>
    <clipPath
       id="clipPath3427-4"
       clipPathUnits="userSpaceOnUse">
      <path
         inkscape:connector-curvature="0"
         id="path3429-2"
         d="m 354.29,31.514 55.205,0 0,12.705 -55.205,0 0,-12.705 z" />
    </clipPath>
  </defs>
  <sodipodi:namedview
     id="base"
     pagecolor="#ffffff"
     bordercolor="#666666"
     borderopacity="1.0"
     inkscape:pageopacity="0.0"
     inkscape:pageshadow="2"
     inkscape:zoom="3.959798"
     inkscape:cx="20.947097"
     inkscape:cy="78.336182"
     inkscape:document-units="px"
     inkscape:current-layer="layer1"
     showgrid="false"
     inkscape:window-width="1920"
     inkscape:window-height="1017"
     inkscape:window-x="-8"
     inkscape:window-y="-8"
     inkscape:window-maximized="1"
     fit-margin-top="1"
     fit-margin-left="1"
     fit-margin-right="1"
     fit-margin-bottom="1" />
  <metadata
     id="metadata5277">
    <rdf:RDF>
      <cc:Work
         rdf:about="">
        <dc:format>image/svg+xml</dc:format>
        <dc:type
           rdf:resource="http://purl.org/dc/dcmitype/StillImage" />
        <dc:title></dc:title>
      </cc:Work>
    </rdf:RDF>
  </metadata>
  <g
     inkscape:label="Calque 1"
     inkscape:groupmode="layer"
     id="layer1"
     transform="translate(-337.0262,-561.07372)">
    <g
       id="g5401">
      <g
         transform="matrix(1.25,0,0,-1.25,338.0262,566.52259)"
         id="g3419">
        <path
           id="path3421"
           style="fill:#000000;fill-opacity:1;fill-rule:nonzero;stroke:none"
           d="M 0,0 1.239,0 4.276,-6.652 7.275,0 8.523,0 4.382,-9.12 4.166,-9.12 0,0 z"
           inkscape:connector-curvature="0" />
      </g>
      <g
         transform="matrix(1.25,0,0,-1.25,-104.8368,617.34747)"
         id="g3423">
        <g
           clip-path="url(#clipPath3427-4)"
           id="g3425">
          <path
             id="path3431"
             style="fill:#000000;fill-opacity:1;fill-rule:nonzero;stroke:none"
             d="m 364.41,40.66 1.164,0 0,-9.12 -1.164,0 0,9.12 z m 0.578,3.559 c 0.265,0 0.491,-0.095 0.679,-0.287 0.187,-0.191 0.281,-0.422 0.281,-0.693 0,-0.264 -0.094,-0.492 -0.281,-0.683 -0.188,-0.191 -0.414,-0.288 -0.679,-0.288 -0.26,0 -0.484,0.097 -0.671,0.288 -0.187,0.191 -0.281,0.419 -0.281,0.683 0,0.271 0.094,0.502 0.281,0.693 0.187,0.192 0.411,0.287 0.671,0.287"
             inkscape:connector-curvature="0" />
          <g
             transform="translate(395.4839,36.9747)"
             id="g3433">
            <path
               id="path3435"
               style="fill:#000000;fill-opacity:1;fill-rule:nonzero;stroke:none"
               d="m 0,0 c -0.147,0.595 -0.36,1.07 -0.641,1.426 -0.28,0.356 -0.65,0.643 -1.111,0.861 -0.461,0.218 -0.945,0.327 -1.454,0.327 -0.838,0 -1.558,-0.274 -2.161,-0.821 C -5.807,1.395 -6.139,0.796 -6.364,0 L 0,0 z M 0,-2.335 0.926,-2.829 C 0.623,-3.435 0.272,-3.923 -0.126,-4.295 -0.525,-4.667 -0.972,-4.95 -1.47,-5.144 c -0.497,-0.193 -1.06,-0.29 -1.688,-0.29 -1.393,0 -2.482,0.463 -3.267,1.39 -0.786,0.927 -1.179,1.975 -1.179,3.143 0,1.1 0.332,2.08 0.998,2.941 0.843,1.094 1.971,1.641 3.385,1.641 1.456,0 2.618,-0.56 3.487,-1.681 0.618,-0.792 0.932,-1.78 0.943,-2.964 l -7.682,0 c 0.02,-1.007 0.337,-1.833 0.95,-2.476 0.612,-0.644 1.369,-0.967 2.27,-0.967 0.435,0 0.858,0.077 1.269,0.23 0.412,0.154 0.761,0.358 1.049,0.612 0.289,0.254 0.6,0.664 0.935,1.23"
               inkscape:connector-curvature="0" />
          </g>
          <g
             transform="translate(381.9969,39.5739)"
             id="g3437">
            <path
               id="path3439"
               style="fill:#000000;fill-opacity:1;fill-rule:nonzero;stroke:none"
               d="m 0,0 c -0.611,0 -1.175,-0.152 -1.692,-0.457 -0.516,-0.305 -0.927,-0.733 -1.233,-1.284 -0.305,-0.552 -0.458,-1.135 -0.458,-1.75 0,-0.609 0.154,-1.193 0.462,-1.749 0.308,-0.556 0.722,-0.99 1.241,-1.3 0.519,-0.31 1.077,-0.465 1.672,-0.465 0.601,0 1.169,0.154 1.708,0.461 0.537,0.308 0.95,0.723 1.241,1.248 0.289,0.525 0.434,1.116 0.434,1.774 0,1.001 -0.325,1.839 -0.975,2.512 C 1.75,-0.337 0.95,0 0,0 m 4.387,4.644 0,-12.677 -1.083,0 0,1.712 C 2.844,-6.889 2.328,-7.316 1.756,-7.603 1.184,-7.889 0.558,-8.032 -0.122,-8.032 c -1.207,0 -2.238,0.444 -3.092,1.333 -0.855,0.889 -1.282,1.971 -1.282,3.244 0,1.247 0.431,2.314 1.293,3.201 0.863,0.885 1.9,1.329 3.113,1.329 0.7,0 1.334,-0.151 1.901,-0.454 0.567,-0.303 1.065,-0.756 1.493,-1.361 l 0,5.384 1.083,0 z"
               inkscape:connector-curvature="0" />
          </g>
          <g
             transform="translate(403.1227,44.1731)"
             id="g3441">
            <path
               id="path3443"
               style="fill:#f49d22;fill-opacity:1;fill-rule:nonzero;stroke:none"
               d="m 0,0 c 0,0 1.497,-0.992 1.754,-3.72 0,0 0.506,-6.552 -2.884,-7.836 0,0 0.304,-0.056 0.645,-0.041 0,0 4.192,2.644 2.269,7.777 0,0 -0.575,1.791 -1.784,3.82"
               inkscape:connector-curvature="0" />
          </g>
          <g
             transform="translate(405.3107,39.6981)"
             id="g3445">
            <path
               id="path3447"
               style="fill:#f49d22;fill-opacity:1;fill-rule:nonzero;stroke:none"
               d="m 0,0 c 0,0 -0.781,1.208 0.211,2.204 0,0 0.347,0.383 1.337,0.635 0,0 0.991,0.211 1.527,1.348 0,0 1.109,-1.55 0.427,-3.59 0,0 -0.338,-0.919 -1.042,-1.338 -0.532,-0.316 -1.338,-0.416 -2.18,0.409 0,0 2.547,1.396 2.643,2.578 C 2.923,2.246 2.14,0.487 0,0"
               inkscape:connector-curvature="0" />
          </g>
          <g
             transform="translate(405.3107,39.6981)"
             id="g3449">
            <path
               id="path3451"
               style="fill:#f49d22;fill-opacity:1;fill-rule:nonzero;stroke:none"
               d="m 0,0 c 0,0 -0.781,1.208 0.211,2.204 0,0 0.347,0.383 1.337,0.635 0,0 0.991,0.211 1.527,1.348 0,0 1.109,-1.55 0.427,-3.59 0,0 -0.338,-0.919 -1.042,-1.338 -0.532,-0.316 -1.338,-0.416 -2.18,0.409 0,0 2.547,1.396 2.643,2.578 C 2.923,2.246 2.14,0.487 0,0"
               inkscape:connector-curvature="0" />
          </g>
          <g
             transform="translate(374.4325,34.3011)"
             id="g3453">
            <path
               id="path3455"
               style="fill:#000000;fill-opacity:1;fill-rule:nonzero;stroke:none"
               d="m 0,0 c -0.299,-0.541 -0.704,-0.958 -1.213,-1.253 -0.509,-0.294 -1.069,-0.442 -1.677,-0.442 -0.609,0 -1.169,0.148 -1.678,0.442 -0.509,0.295 -0.914,0.712 -1.213,1.253 -0.299,0.541 -0.448,1.124 -0.448,1.75 0,0.97 0.328,1.798 0.983,2.482 0.657,0.685 1.442,1.026 2.356,1.026 0.908,0 1.691,-0.341 2.35,-1.026 C 0.119,3.548 0.449,2.72 0.449,1.75 0.449,1.124 0.299,0.541 0,0 m 1.564,1.774 c 0,1.204 -0.394,2.246 -1.18,3.126 -0.865,0.966 -1.955,1.449 -3.27,1.449 -1.321,0 -2.414,-0.485 -3.279,-1.457 -0.786,-0.88 -1.179,-1.92 -1.179,-3.118 0,-1.209 0.415,-2.266 1.246,-3.17 0.83,-0.905 1.901,-1.357 3.212,-1.357 1.305,0 2.372,0.452 3.203,1.357 0.048,0.052 0.094,0.104 0.139,0.158 l 0.001,-1.523 1.089,0 0,4.12 c 0.011,0.137 0.018,0.275 0.018,0.415"
               inkscape:connector-curvature="0" />
          </g>
          <g
             transform="translate(405.9603,36.0319)"
             id="g3457">
            <path
               id="path3459"
               style="fill:#000000;fill-opacity:1;fill-rule:nonzero;stroke:none"
               d="m 0,0 c 0,-0.628 -0.15,-1.214 -0.45,-1.756 -0.3,-0.543 -0.704,-0.963 -1.215,-1.258 -0.51,-0.295 -1.07,-0.443 -1.68,-0.443 -0.611,0 -1.171,0.148 -1.682,0.443 -0.51,0.295 -0.915,0.715 -1.215,1.258 -0.299,0.542 -0.45,1.128 -0.45,1.756 0,0.974 0.329,1.805 0.986,2.491 0.658,0.687 1.445,1.031 2.361,1.031 0.434,0 0.841,-0.08 1.22,-0.237 0.037,0.397 0.177,0.768 0.331,1.07 -0.476,0.172 -0.991,0.26 -1.547,0.26 -1.324,0 -2.419,-0.487 -3.286,-1.461 -0.788,-0.884 -1.181,-1.927 -1.181,-3.13 0,-1.213 0.416,-2.274 1.248,-3.182 0.832,-0.907 1.905,-1.361 3.219,-1.361 1.306,0 2.376,0.454 3.209,1.361 0.832,0.908 1.248,1.969 1.248,3.182 0,0.65 -0.115,1.251 -0.342,1.807 C 0.392,1.596 0.028,1.473 -0.272,1.41 -0.092,0.98 0,0.51 0,0"
               inkscape:connector-curvature="0" />
          </g>
        </g>
      </g>
    </g>
  </g>
</svg>
